<svg xmlns="http://www.w3.org/2000/svg" version="1.1" xmlns:xlink="http://www.w3.org/1999/xlink" xmlns:svgjs="http://svgjs.dev/svgjs" viewBox="0 0 800 800"><defs><radialGradient id="ccclaymoji-grad-dark" r="93%" cx="20%" cy="20%">
      <stop offset="70%" stop-color="hsl(205, 69%, 50%)" stop-opacity="0"></stop>
      <stop offset="97%" stop-color="#0061a5" stop-opacity="1"></stop>
    </radialGradient><radialGradient id="ccclaymoji-grad-light" r="65%" cx="28%" cy="20%">
    <stop offset="0%" stop-color="#6bbeff" stop-opacity="0.75"></stop>
    <stop offset="100%" stop-color="hsl(205, 69%, 50%)" stop-opacity="0"></stop>
  </radialGradient><filter id="ccclaymoji-blur" x="-100%" y="-100%" width="400%" height="400%" filterUnits="objectBoundingBox" primitiveUnits="userSpaceOnUse" color-interpolation-filters="sRGB">
	<feGaussianBlur stdDeviation="30" x="0%" y="0%" width="100%" height="100%" in="SourceGraphic" edgeMode="none" result="blur"></feGaussianBlur></filter><filter id="inner-blur" x="-100%" y="-100%" width="400%" height="400%" filterUnits="objectBoundingBox" primitiveUnits="userSpaceOnUse" color-interpolation-filters="sRGB">
	<feGaussianBlur stdDeviation="2" x="0%" y="0%" width="100%" height="100%" in="SourceGraphic" edgeMode="none" result="blur"></feGaussianBlur></filter><filter id="eye-shadow" x="-100%" y="-100%" width="400%" height="400%" filterUnits="objectBoundingBox" primitiveUnits="userSpaceOnUse" color-interpolation-filters="sRGB">
	<feDropShadow stdDeviation="10" dx="10" dy="10" flood-color="#000000" flood-opacity="0.2" x="0%" y="0%" width="100%" height="100%" result="dropShadow"></feDropShadow>
</filter><linearGradient gradientTransform="rotate(-25)" id="eye-light" x1="50%" y1="0%" x2="50%" y2="100%">
      <stop offset="20%" stop-color="#555555" stop-opacity="1"></stop>
      <stop offset="100%" stop-color="black" stop-opacity="0"></stop>
    </linearGradient><linearGradient id="mouth-light" x1="50%" y1="0%" x2="50%" y2="100%">
    <stop offset="0%" stop-color="#ff9667" stop-opacity="1"></stop>
    <stop offset="100%" stop-color="hsl(3, 100%, 51%)" stop-opacity="0"></stop>
  </linearGradient><filter id="mouth-shadow" x="-100%" y="-100%" width="400%" height="400%" filterUnits="objectBoundingBox" primitiveUnits="userSpaceOnUse" color-interpolation-filters="sRGB">
	<feDropShadow stdDeviation="10" dx="10" dy="10" flood-color="#c20000" flood-opacity="0.2" x="0%" y="0%" width="100%" height="100%" result="dropShadow"></feDropShadow>
</filter></defs><g stroke-linecap="round"><path d="M750 450.0000092128538C750 664.141518646816 614.1415094339623 837.7358582694576 400 837.7358582694576C185.85943396226415 837.7358582694576 50 664.141518646816 50 450.0000092128538C50 235.85944317511792 185.85943396226415 62.26416015625 400 62.26416015625C614.1415094339623 62.26416015625 750 235.85944317511792 750 450.0000092128538Z " fill="#0061a5" opacity="0.25" filter="url(#ccclaymoji-blur)"></path><path d="M750.0000305175781 399.99996574380117C750.0000305175781 626.343270587106 626.343335360883 769.9429856868211 400.0000305175781 769.9429856868211C173.6577228252704 769.9429856868211 50.000030517578125 626.343270587106 50.000030517578125 399.99996574380117C50.000030517578125 173.65765805149348 173.6577228252704 30.05694580078125 400.0000305175781 30.05694580078125C626.343335360883 30.05694580078125 750.0000305175781 173.65765805149348 750.0000305175781 399.99996574380117Z " fill="hsl(205, 69%, 50%)"></path><path d="M750.0000305175781 399.99996574380117C750.0000305175781 626.343270587106 626.343335360883 769.9429856868211 400.0000305175781 769.9429856868211C173.6577228252704 769.9429856868211 50.000030517578125 626.343270587106 50.000030517578125 399.99996574380117C50.000030517578125 173.65765805149348 173.6577228252704 30.05694580078125 400.0000305175781 30.05694580078125C626.343335360883 30.05694580078125 750.0000305175781 173.65765805149348 750.0000305175781 399.99996574380117Z " fill="url(#ccclaymoji-grad-dark)"></path><path d="M750.0000305175781 399.99996574380117C750.0000305175781 626.343270587106 626.343335360883 769.9429856868211 400.0000305175781 769.9429856868211C173.6577228252704 769.9429856868211 50.000030517578125 626.343270587106 50.000030517578125 399.99996574380117C50.000030517578125 173.65765805149348 173.6577228252704 30.05694580078125 400.0000305175781 30.05694580078125C626.343335360883 30.05694580078125 750.0000305175781 173.65765805149348 750.0000305175781 399.99996574380117Z " fill="url(#ccclaymoji-grad-light)"></path><ellipse rx="48" ry="45.5" cx="358" cy="375" fill="black" filter="url(#eye-shadow)"></ellipse><ellipse rx="48" ry="45.5" cx="358" cy="375" fill="url(#eye-light)" filter="url(#inner-blur)"></ellipse><ellipse rx="45" ry="41.5" cx="477" cy="375" fill="black" filter="url(#eye-shadow)"></ellipse><ellipse rx="45" ry="41.5" cx="477" cy="375" fill="url(#eye-light)" filter="url(#inner-blur)"></ellipse><path d="M314.5 481.75Q377.5 654.75 501.5 481.75 " fill="hsl(3, 100%, 51%)" filter="url(#mouth-shadow)" transform="rotate(7, 400, 400)"></path><path d="M314.5 481.75Q377.5 654.75 501.5 481.75 " fill="url(#mouth-light)" filter="url(#inner-blur)" transform="rotate(7, 400, 400)"></path></g></svg>